<svg xmlns="http://www.w3.org/2000/svg" viewBox="0 0 307.12 93.41"><defs><style>.cls-1{fill:#fff;}</style></defs><title>Asset 1</title><g id="Layer_2" data-name="Layer 2"><g id="Layer_1-2" data-name="Layer 1"><path d="M23,0v6.8C20.57,4.13,16.87,0,16.87,0H0V83.79l9.72,7.68,10.13-1.28s0-4.42.07-7.42l7.89,6.48,16.59-1.69V8.64L35.41,0Z"/><path d="M125.19,0H96.35V11.16L105,18V75.49l9.55,7.67,11.54-.3V18l8.53-.06V9.78L125.89,0Z"/><polygon points="241.76 0.01 230.4 0.01 230.4 77.02 240.09 86 251.55 86.95 251.55 8.85 242.4 0.01 241.76 0.01"/><path d="M298.19,47.09c.11-.57,6.87-37.64,6.87-37.64L295.84,0h-12s-.61,3.88-1,6.31L277,0H264.59s7.06,37,7.17,37.53c-.09.54-6.77,42.12-6.77,42.12l13.13,10,7.84.93v-7L296.76,92l10.36,1.42Z"/><path d="M210.61,63.77V8.57l-9-8.56H189.45V75.14l9.63,8.43L221,84.66l-.48-9.73Z"/><path d="M78.92,16.68h9.43V8.61L79.36,0H57.74V78.16l9.48,7.47,21.13-1.32V75.66L78.92,65.23v-14h9.56V42.55L78.92,33Z"/><path d="M167,16.67h9.43V8.61l-9-8.61H145.77V74.62l9.62,8,11.56.08V51.26h9.56V42.55L167,33Z"/><path class="cls-1" d="M232.91,75.58s2.93.15,8,.51V2.24l-8,0Z"/><path class="cls-1" d="M98.87,9.62h8.67V73.86s1.86-.15,7.94-.28l0-63.95h8.78V2.27H98.87Z"/><path class="cls-1" d="M25.77,65.73l-.57.06L15.51,2.27,2.6,2.25V82s2.56-.37,8-1l-.56-60.61.56-.05,9.22,59.72s3.16-.38,13.87-1.44V2.26H25.48Z"/><polygon class="cls-1" points="294.79 2.24 285.82 2.24 281.31 30.73 280.78 30.73 276.1 2.24 267.29 2.24 274.17 37.48 267.52 78.68 276.08 79.49 280.49 45.53 281.02 45.54 285.3 80.45 294.69 81.49 287.98 38.49 294.79 2.24"/><path class="cls-1" d="M200,2.24h-8V73.61s5.42.15,18.48.73V67.1S209,67,200,66.64V2.24Z"/><path class="cls-1" d="M60.25,76.46s4.72-.32,18.37-1.2V68l-10.32.71V43.13H78.62V35.7H68.26V9.63h10.4V2.25H60.25v74.2Z"/><polygon class="cls-1" points="148.28 73.02 156.34 73.02 156.34 43.13 166.65 43.13 166.65 35.7 156.29 35.7 156.29 9.63 166.69 9.63 166.69 2.25 148.28 2.26 148.28 73.02"/></g></g></svg>