<svg xmlns="http://www.w3.org/2000/svg" viewBox="0 0 38.83 30.51"><title>Asset 1</title><g id="Layer_2" data-name="Layer 2"><g id="Layer_1-2" data-name="Layer 1"><path d="M31.9,27.69v.73a2.06,2.06,0,0,1-2,2.08H9.21a2.19,2.19,0,0,1-1.85-.82,2.05,2.05,0,0,1-.42-1.26v-.75c-1.67.09-3.31,0-5,0A2,2,0,0,1,0,25.8c0-.1,0-.2,0-.31V13Q0,7.55,0,2.11A2,2,0,0,1,1.44.1,2.47,2.47,0,0,1,2.11,0H36.73a2,2,0,0,1,2.1,2.11V25.52a2.06,2.06,0,0,1-2.21,2.21H33.71ZM8.32,9.71V28.33a.72.72,0,0,0,.81.81H29.57c.73,0,1-.22,1-.94,0-1.3,0-2.6,0-3.9V9.94c0-.07,0-.15,0-.23Zm11.1-1.39H37.11c.36,0,.36,0,.36-.37V4.88c0-.92,0-1.84,0-2.76a.7.7,0,0,0-.74-.75H2.28c-.68,0-.91.23-.91.91V8c0,.35,0,.35.35.35ZM6.94,9.7H1.67c-.25,0-.31.07-.31.3,0,1.48,0,2.95,0,4.43v11c0,.67.23.9.9.9H6c.69,0,.92-.23.92-.92V9.7Zm25,0V25.53c0,.56.25.82.82.83h3.9c.6,0,.85-.25.85-.86,0-2.23,0-4.47,0-6.71q0-4.4,0-8.79c0-.22,0-.3-.28-.3H31.9Z"/></g></g></svg>